<?xml version="1.0" encoding="iso-8859-1"?>
<!-- Generator: Adobe Illustrator 19.0.0, SVG Export Plug-In . SVG Version: 6.00 Build 0)  -->
<svg version="1.1" id="Capa_1" xmlns="http://www.w3.org/2000/svg" xmlns:xlink="http://www.w3.org/1999/xlink" x="0px" y="0px"
	 viewBox="0 0 512 512" style="enable-background:new 0 0 512 512;" xml:space="preserve">
<path style="fill:#87D2F3;" d="M362.667,10.667L448,96h-64c-11.767-0.035-21.298-9.566-21.333-21.333V10.667z"/>
<path style="fill:#FFFFFF;" d="M448,96v384c-0.035,11.768-9.566,21.298-21.333,21.333H85.333C73.566,501.298,64.035,491.768,64,480
	V32c0.035-11.767,9.566-21.298,21.333-21.333h277.333v64C362.702,86.434,372.233,95.965,384,96H448z"/>
<path style="fill:#87D2F3;" d="M362.667,384v64H149.333v-64c0,0,0-21.333,32-32c18.215-5.964,36.03-13.09,53.333-21.333v-14.4
	C209.103,307.259,192.002,283.104,192,256v-32c0-35.346,28.654-64,64-64s64,28.654,64,64v32
	c-0.002,27.104-17.103,51.259-42.667,60.267v14.4c17.304,8.243,35.118,15.369,53.333,21.333
	C362.667,362.667,362.667,384,362.667,384z"/>
<g>
	<path style="fill:#2170A6;" d="M455.541,88.459L370.208,3.125c-2-2.001-4.713-3.125-7.541-3.125H85.333c-17.673,0-32,14.327-32,32
		l0,0v448c0,17.673,14.327,32,32,32h341.333c17.673,0,32-14.327,32-32V96C458.666,93.171,457.542,90.459,455.541,88.459z
		 M437.333,480c0,5.891-4.776,10.667-10.667,10.667H85.333c-5.891,0-10.667-4.776-10.667-10.667V32
		c0-5.891,4.776-10.667,10.667-10.667H352v53.333c0,17.673,14.327,32,32,32h21.333V85.333H384c-5.891,0-10.667-4.776-10.667-10.667
		V36.416l64,64V480z"/>
	<path style="fill:#2170A6;" d="M117.333,64H224v21.333H117.333V64z"/>
	<path style="fill:#2170A6;" d="M117.333,106.667h21.333V128h-21.333V106.667z"/>
	<path style="fill:#2170A6;" d="M160,106.667h21.333V128H160V106.667z"/>
	<path style="fill:#2170A6;" d="M334.037,341.877c-15.647-5.19-31.013-11.189-46.037-17.973v-0.512
		c26.035-12.349,42.64-38.577,42.667-67.392v-32c0-41.237-33.429-74.667-74.667-74.667S181.333,182.763,181.333,224v32
		c0.027,28.815,16.632,55.043,42.667,67.392v0.512c-15.024,6.785-30.391,12.784-46.037,17.973
		c-38.848,12.949-39.296,40.939-39.296,42.123v64H160v-63.712c0-0.576,1.067-14.293,24.715-22.165
		c18.692-6.098,36.97-13.398,54.72-21.856c3.634-1.816,5.921-5.538,5.899-9.6v-14.4c-0.001-4.525-2.857-8.556-7.125-10.059
		c-21.278-7.53-35.512-27.638-35.541-50.208v-32c0-29.455,23.878-53.333,53.333-53.333s53.333,23.878,53.333,53.333v32
		c-0.03,22.57-14.264,42.678-35.541,50.208c-4.268,1.502-7.124,5.534-7.125,10.059v14.4c-0.002,4.043,2.282,7.739,5.899,9.547
		c17.752,8.476,36.034,15.795,54.731,21.909C350.933,369.995,352,383.712,352,384v64h21.333v-64
		C373.333,382.816,372.885,354.827,334.037,341.877L334.037,341.877z"/>
	<path style="fill:#2170A6;" d="M192,394.667h21.333V448H192V394.667z"/>
	<path style="fill:#2170A6;" d="M298.667,394.667H320V448h-21.333V394.667z"/>
</g>
<g>
</g>
<g>
</g>
<g>
</g>
<g>
</g>
<g>
</g>
<g>
</g>
<g>
</g>
<g>
</g>
<g>
</g>
<g>
</g>
<g>
</g>
<g>
</g>
<g>
</g>
<g>
</g>
<g>
</g>
</svg>
